<svg id="a9ed8c40-edb3-4b5a-8642-1defd56dfad8" data-name="aacc3208-dc1b-4a6a-a495-a7d79d1ccc9c" xmlns="http://www.w3.org/2000/svg" viewBox="0 0 32 32"><defs><style>.aaeadccf-a6dd-4fee-bc93-3bf6f107e0c1{fill:#f55;}</style></defs><title>icon-menu</title><path class="aaeadccf-a6dd-4fee-bc93-3bf6f107e0c1" d="M32,6.7A1.32,1.32,0,0,1,30.7,8H1.3A1.32,1.32,0,0,1,0,6.7V4A1.32,1.32,0,0,1,1.3,2.7H30.6A1.35,1.35,0,0,1,32,4h0Zm0,10.6a1.32,1.32,0,0,1-1.3,1.3H1.3A1.32,1.32,0,0,1,0,17.3V14.6a1.32,1.32,0,0,1,1.3-1.3H30.6a1.32,1.32,0,0,1,1.3,1.3v2.7ZM32,28a1.32,1.32,0,0,1-1.3,1.3H1.3A1.32,1.32,0,0,1,0,28V25.3A1.32,1.32,0,0,1,1.3,24H30.6a1.32,1.32,0,0,1,1.3,1.3V28Z"/></svg>