<svg id="Layer_1" data-name="Layer 1" xmlns="http://www.w3.org/2000/svg" viewBox="0 0 601 371"><defs><style>.cls-1,.cls-4{stroke:#000;stroke-miterlimit:10;}.cls-2{isolation:isolate;}.cls-3,.cls-4{fill:#f9ead7;}</style></defs><rect class="cls-1" x="0.5" y="0.5" width="600" height="370"/><g class="cls-2"><path class="cls-3" d="M136.08,212.86V162.22h6.7v25.11l25.15-25.11H177l-21.24,20.52,22.17,30.12H169.1l-18-25.63-8.29,8.08v17.55Z" transform="translate(0.5 0.5)"/><path class="cls-3" d="M189.61,212.86V176.17h5.59v5.56q2.15-3.9,4-5.14a6.91,6.91,0,0,1,4-1.25,12.13,12.13,0,0,1,6.39,2l-2.14,5.77a8.88,8.88,0,0,0-4.56-1.35,6,6,0,0,0-3.67,1.23,6.61,6.61,0,0,0-2.31,3.4,24.24,24.24,0,0,0-1,7.25v19.21Z" transform="translate(0.5 0.5)"/><path class="cls-3" d="M220.2,169.37v-7.15h6.22v7.15Zm0,43.49V176.17h6.22v36.69Z" transform="translate(0.5 0.5)"/><path class="cls-3" d="M240.33,201.91l6.14-1a8.6,8.6,0,0,0,2.89,5.66,10,10,0,0,0,6.61,2q4.29,0,6.36-1.74a5.22,5.22,0,0,0,2.07-4.09,3.78,3.78,0,0,0-1.83-3.32,26.92,26.92,0,0,0-6.35-2.11,57.3,57.3,0,0,1-9.49-3,9.05,9.05,0,0,1-5.37-8.41,9.46,9.46,0,0,1,1.13-4.54,10,10,0,0,1,3-3.47,12.85,12.85,0,0,1,4-1.81,18.64,18.64,0,0,1,5.37-.75,21.2,21.2,0,0,1,7.58,1.25,10.3,10.3,0,0,1,4.82,3.37,13.19,13.19,0,0,1,2.14,5.68l-6.08.83a6.7,6.7,0,0,0-2.4-4.43,8.83,8.83,0,0,0-5.61-1.58q-4.29,0-6.12,1.41a4.13,4.13,0,0,0-1.83,3.32,3.44,3.44,0,0,0,.76,2.17,5.49,5.49,0,0,0,2.39,1.66q.93.34,5.49,1.59a76.74,76.74,0,0,1,9.2,2.89,9.27,9.27,0,0,1,4.1,3.26,9.11,9.11,0,0,1,1.48,5.32,10.42,10.42,0,0,1-1.81,5.85,11.77,11.77,0,0,1-5.23,4.25,19.09,19.09,0,0,1-7.74,1.5q-7.15,0-10.9-3T240.33,201.91Z" transform="translate(0.5 0.5)"/><path class="cls-3" d="M298.69,207.29l.9,5.5a23.69,23.69,0,0,1-4.7.55,10.66,10.66,0,0,1-5.25-1.07,6,6,0,0,1-2.62-2.82q-.76-1.74-.76-7.34V181H281.7v-4.84h4.56v-9.08l6.18-3.73v12.81h6.25V181h-6.25v21.45a10.81,10.81,0,0,0,.33,3.42,2.55,2.55,0,0,0,1.07,1.21,4.1,4.1,0,0,0,2.12.45A19.12,19.12,0,0,0,298.69,207.29Z" transform="translate(0.5 0.5)"/><path class="cls-3" d="M335.64,208.33a23.31,23.31,0,0,1-6.65,4.15,19.36,19.36,0,0,1-6.86,1.2q-6,0-9.29-3a9.76,9.76,0,0,1-3.25-7.55,10,10,0,0,1,1.23-4.92,10.17,10.17,0,0,1,3.21-3.57,15.13,15.13,0,0,1,4.48-2,45.08,45.08,0,0,1,5.52-.93,57.65,57.65,0,0,0,11.09-2.14c0-.86,0-1.4,0-1.63,0-2.53-.58-4.32-1.76-5.35q-2.38-2.11-7.08-2.11-4.38,0-6.47,1.54c-1.4,1-2.43,2.84-3.1,5.44l-6.07-.83a15.1,15.1,0,0,1,2.72-6.3,12,12,0,0,1,5.5-3.7,24.51,24.51,0,0,1,8.32-1.3,21.9,21.9,0,0,1,7.63,1.11,10,10,0,0,1,4.32,2.78,9.85,9.85,0,0,1,1.94,4.23,35.94,35.94,0,0,1,.31,5.74v8.29a89.56,89.56,0,0,0,.39,11,13.9,13.9,0,0,0,1.58,4.41h-6.5A13.21,13.21,0,0,1,335.64,208.33Zm-.52-13.88A45.5,45.5,0,0,1,325,196.79a23.58,23.58,0,0,0-5.42,1.25,5.39,5.39,0,0,0-2.45,2,5.51,5.51,0,0,0,1,7.1,8.12,8.12,0,0,0,5.51,1.65,12.82,12.82,0,0,0,6.39-1.57,9.69,9.69,0,0,0,4.11-4.3,15,15,0,0,0,1-6.22Z" transform="translate(0.5 0.5)"/><path class="cls-3" d="M357.84,212.86V162.22h6.21v50.64Z" transform="translate(0.5 0.5)"/><path class="cls-3" d="M380.49,212.86V162.22h6.21v50.64Z" transform="translate(0.5 0.5)"/><path class="cls-3" d="M403.31,169.37v-7.15h6.21v7.15Zm0,43.49V176.17h6.21v36.69Z" transform="translate(0.5 0.5)"/><path class="cls-3" d="M425.92,226.91V176.17h5.66v4.77a14.18,14.18,0,0,1,4.53-4.2,12.46,12.46,0,0,1,6.11-1.4,14.48,14.48,0,0,1,8.29,2.42,14.83,14.83,0,0,1,5.43,6.82,25,25,0,0,1,1.83,9.66,24.67,24.67,0,0,1-2,10.14,15.25,15.25,0,0,1-5.88,6.9,15,15,0,0,1-8.1,2.4,11.6,11.6,0,0,1-5.57-1.31,12.67,12.67,0,0,1-4.06-3.31v17.85Zm5.63-32.19q0,7.08,2.87,10.47a8.8,8.8,0,0,0,6.94,3.38,9,9,0,0,0,7.1-3.5q3-3.51,3-10.87,0-7-2.88-10.5a8.71,8.71,0,0,0-6.89-3.49q-4,0-7,3.72T431.55,194.72Z" transform="translate(0.5 0.5)"/><path class="cls-3" d="M496.13,208.33a23.17,23.17,0,0,1-6.65,4.15,19.31,19.31,0,0,1-6.85,1.2q-6,0-9.3-3a9.75,9.75,0,0,1-3.24-7.55,10.16,10.16,0,0,1,4.44-8.49,15,15,0,0,1,4.47-2,45,45,0,0,1,5.53-.93,57.51,57.51,0,0,0,11.08-2.14c0-.86,0-1.4,0-1.63,0-2.53-.59-4.32-1.76-5.35q-2.38-2.11-7.08-2.11-4.4,0-6.48,1.54c-1.39,1-2.42,2.84-3.09,5.44l-6.08-.83a15,15,0,0,1,2.73-6.3,11.87,11.87,0,0,1,5.49-3.7,24.55,24.55,0,0,1,8.32-1.3,22,22,0,0,1,7.64,1.11,10.07,10.07,0,0,1,4.31,2.78,9.73,9.73,0,0,1,1.94,4.23,34.76,34.76,0,0,1,.31,5.74v8.29a86.66,86.66,0,0,0,.4,11,13.88,13.88,0,0,0,1.57,4.41h-6.49A13.21,13.21,0,0,1,496.13,208.33Zm-.52-13.88a45.39,45.39,0,0,1-10.15,2.34A23.31,23.31,0,0,0,480,198a5.42,5.42,0,0,0-2.46,2,5.51,5.51,0,0,0,1,7.1,8.13,8.13,0,0,0,5.51,1.65,12.77,12.77,0,0,0,6.39-1.57,9.58,9.58,0,0,0,4.11-4.3,15,15,0,0,0,1-6.22Z" transform="translate(0.5 0.5)"/><path class="cls-3" d="M518.33,212.86V162.22h6.22v50.64Z" transform="translate(0.5 0.5)"/><path class="cls-3" d="M541,212.86V162.22h6.22v50.64Z" transform="translate(0.5 0.5)"/><path class="cls-3" d="M561.45,194.51q0-10.19,5.67-15.09a17,17,0,0,1,11.53-4.08,16.47,16.47,0,0,1,12.37,5q4.8,5,4.8,13.7,0,7.08-2.12,11.14a15.09,15.09,0,0,1-6.19,6.3,18,18,0,0,1-8.86,2.24q-7.7,0-12.45-4.93T561.45,194.51Zm6.39,0q0,7.05,3.08,10.56a10.24,10.24,0,0,0,15.44,0q3.06-3.53,3.07-10.74,0-6.81-3.09-10.31a10.24,10.24,0,0,0-15.42,0Q567.85,187.48,567.84,194.51Z" transform="translate(0.5 0.5)"/></g><path class="cls-4" d="M259.66,303.09A137.69,137.69,0,0,1,189.07,36.92c1.27-.34,2.55-.65,3.82-1a151.09,151.09,0,1,0,70.57,266C262.19,302.39,260.93,302.75,259.66,303.09Z" transform="translate(0.5 0.5)"/></svg>